{"title":"The Last Legion(2007)MPEG-4[DaScubaDude]","uid":15879208,"size":1118207822,"categoryP":"video","categoryS":"movies","magnet":"?xt=urn:btih:466f35f639b5a8c130403b94419afb2a037483b8&amp;dn=The+Last+Legion%282007%29MPEG-4%5BDaScubaDude%5D&amp;tr=udp%3A%2F%2Ftracker.leechers-paradise.org%3A6969&amp;tr=udp%3A%2F%2Fzer0day.ch%3A1337&amp;tr=udp%3A%2F%2Fopen.demonii.com%3A1337&amp;tr=udp%3A%2F%2Ftracker.coppersurfer.tk%3A6969&amp;tr=udp%3A%2F%2Fexodus.desync.com%3A6969","seeders":7,"leechers":2,"uploader":"dascuba","files":1,"time":1474570945,"description":"The Last Legion (2007)\r\nPG-13 | 1h 42min | Action, Adventure, Fantasy | 17 August 2007 (USA)\r\nAs the Roman empire crumbles, young Romulus Augustus flees the city and embarks on a perilous voyage to Britain to track down a legion of supporters.\r\nDirector: Doug Lefler\r\nWriters: Jez Butterworth (screenplay), Tom Butterworth (screenplay) |\r\nStars: Colin Firth, Ben Kingsley, Aishwarya Rai Bachchan |\r\n\r\nGeneral\r\nComplete name                            : TheLastLegionTHE_LAST_LEGION_Title7.mp4\r\nFormat                                   : MPEG-4\r\nFormat profile                           : Base Media\r\nCodec ID                                 : isom (isom/iso2/avc1/mp41)\r\nFile size                                : 1.04 GiB\r\nDuration                                 : 1h 41mn\r\nOverall bit rate                         : 1 466 Kbps\r\nMovie name                               : THE_LAST_LEGION\r\nGenre                                    : Epic\r\nWriting application                      : Lavf54.6.100\r\n\r\nVideo\r\nID                                       : 1\r\nFormat                                   : AVC\r\nFormat/Info                              : Advanced Video Codec\r\nFormat profile                           :   \r\nFormat settings, CABAC                   : No\r\nFormat settings, ReFrames                : 6 frames\r\nFormat settings, GOP                     : M=1, N=60\r\nCodec ID                                 : avc1\r\nCodec ID/Info                            : Advanced Video Coding\r\nDuration                                 : 1h 41mn\r\nBit rate                                 : 1 187 Kbps\r\nWidth                                    : 720 pixels\r\nHeight                                   : 404 pixels\r\nDisplay aspect ratio                     : 16:9\r\nFrame rate mode                          : Constant\r\nFrame rate                               : 29.970 (30000/1001) fps\r\nColor space                              : YUV\r\nChroma subsampling                       : 4:2:0\r\nBit depth                                : 8 bits\r\nScan type                                : Progressive\r\nBits/(Pixel*Frame)                       : 0.136\r\nStream size                              : 863 MiB (81%)\r\n\r\nAudio\r\nID                                       : 2\r\nFormat                                   : AAC\r\nFormat/Info                              : Advanced Audio Codec\r\nFormat profile                           : LC\r\nCodec ID                                 : 40\r\nDuration                                 : 1h 41mn\r\nBit rate mode                            : Constant\r\nBit rate                                 : 272 Kbps\r\nChannel(s)                               : 2 channels\r\nChannel(s)_Original                      : 6 channels\r\nChannel positions                        : Front: L C R, Side: L R, LFE\r\nSampling rate                            : 44.1 KHz\r\nFrame rate                               : 43.066 fps (1024 spf)\r\nCompression mode                         : Lossy\r\nStream size                              : 198 MiB (19%)\r\nDefault                                  : Yes\r\nAlternate group                          : 1","torrent":{"xt":"urn:btih:466f35f639b5a8c130403b94419afb2a037483b8","amp;dn":"The+Last+Legion%282007%29MPEG-4%5BDaScubaDude%5D","amp;tr":["udp%3A%2F%2Ftracker.leechers-paradise.org%3A6969","udp%3A%2F%2Fzer0day.ch%3A1337","udp%3A%2F%2Fopen.demonii.com%3A1337","udp%3A%2F%2Ftracker.coppersurfer.tk%3A6969","udp%3A%2F%2Fexodus.desync.com%3A6969"],"infoHash":"466f35f639b5a8c130403b94419afb2a037483b8","infoHashBuffer":{"type":"Buffer","data":[70,111,53,246,57,181,168,193,48,64,59,148,65,154,251,42,3,116,131,184]},"announce":[],"urlList":[]}}